<svg  xmlns="http://www.w3.org/2000/svg" xmlns:xlink="http://www.w3.org/1999/xlink">
    <symbol id="twitter" viewBox="0 0 20 17">
        <path d="M17.9441 4.0482C17.9568 4.22586 17.9568 4.40355 17.9568 4.58121C17.9568 9.99996 13.8325 16.2436 6.29441 16.2436C3.97207 16.2436 1.81473 15.571 0 14.4036C0.329961 14.4416 0.647187 14.4543 0.989844 14.4543C2.90605 14.4543 4.67004 13.8071 6.07867 12.703C4.27664 12.665 2.76648 11.4848 2.24617 9.86039C2.5 9.89844 2.75379 9.92383 3.02031 9.92383C3.38832 9.92383 3.75637 9.87305 4.09898 9.78426C2.22082 9.40351 0.812148 7.75379 0.812148 5.76141V5.71066C1.35781 6.01523 1.99238 6.20559 2.66492 6.23094C1.56086 5.49488 0.837539 4.23855 0.837539 2.81723C0.837539 2.05582 1.04055 1.35785 1.3959 0.748711C3.41367 3.23602 6.44668 4.86035 9.84766 5.03805C9.78422 4.73348 9.74613 4.41625 9.74613 4.09898C9.74613 1.84008 11.5736 0 13.8451 0C15.0253 0 16.0913 0.494922 16.84 1.29441C17.7664 1.11676 18.6547 0.774102 19.4416 0.30457C19.137 1.25637 18.4898 2.05586 17.6395 2.56344C18.4644 2.47465 19.2639 2.24617 19.9999 1.92895C19.4416 2.74109 18.7436 3.46441 17.9441 4.0482Z" />
    </symbol>
    <symbol id="facebook" viewBox="0 0 10 19">
        <path d="M9.34469 10.5025L9.86325 7.12348H6.62096V4.93071C6.62096 4.00627 7.07388 3.10517 8.526 3.10517H10V0.228284C10 0.228284 8.66239 0 7.38349 0C4.71337 0 2.96806 1.61841 2.96806 4.54817V7.12348H0V10.5025H2.96806V18.6711H6.62096V10.5025H9.34469Z" />
    </symbol>  
   <symbol id="linkedin" viewBox="0 0 56 56">
        <path d="M52 0H3.9875C1.7875 0 0 1.8125 0 4.0375V51.9625C0 54.1875 1.7875 56 3.9875 56H52C54.2 56 56 54.1875 56 51.9625V4.0375C56 1.8125 54.2 0 52 0ZM16.925 48H8.625V21.275H16.9375V48H16.925ZM12.775 17.625C10.1125 17.625 7.9625 15.4625 7.9625 12.8125C7.9625 10.1625 10.1125 8 12.775 8C15.425 8 17.5875 10.1625 17.5875 12.8125C17.5875 15.475 15.4375 17.625 12.775 17.625ZM48.0375 48H39.7375V35C39.7375 31.9 39.675 27.9125 35.425 27.9125C31.1 27.9125 30.4375 31.2875 30.4375 34.775V48H22.1375V21.275H30.1V24.925H30.2125C31.325 22.825 34.0375 20.6125 38.075 20.6125C46.475 20.6125 48.0375 26.15 48.0375 33.35V48Z" />
    </symbol>
    <symbol id="youtube" viewBox="0 0 70 48">
        <path d="M67.7068 7.51038C66.9217 4.55412 64.6084 2.22587 61.6713 1.43575C56.3475 0 34.9999 0 34.9999 0C34.9999 0 13.6524 0 8.32853 1.43575C5.39141 2.226 3.07816 4.55412 2.29303 7.51038C0.866531 12.8687 0.866531 24.0485 0.866531 24.0485C0.866531 24.0485 0.866531 35.2282 2.29303 40.5866C3.07816 43.5429 5.39141 45.7741 8.32853 46.5643C13.6524 48 34.9999 48 34.9999 48C34.9999 48 56.3474 48 61.6713 46.5643C64.6084 45.7741 66.9217 43.5429 67.7068 40.5866C69.1333 35.2282 69.1333 24.0485 69.1333 24.0485C69.1333 24.0485 69.1333 12.8687 67.7068 7.51038ZM28.018 34.1989V13.8981L45.8604 24.0488L28.018 34.1989Z" />
    </symbol>
    <symbol id="pinterest" viewBox="0 0 62 64">
        <path d="M62 32C62 49.125 48.125 63 31 63C27.8 63 24.725 62.5125 21.825 61.6125C23.0875 59.55 24.975 56.175 25.675 53.4875C26.05 52.0375 27.6 46.1125 27.6 46.1125C28.6125 48.0375 31.5625 49.675 34.7 49.675C44.05 49.675 50.7875 41.075 50.7875 30.3875C50.7875 20.15 42.425 12.4875 31.675 12.4875C18.3 12.4875 11.1875 21.4625 11.1875 31.25C11.1875 35.8 13.6125 41.4625 17.475 43.2625C18.0625 43.5375 18.375 43.4125 18.5125 42.85C18.6125 42.425 19.1375 40.3125 19.375 39.3375C19.45 39.025 19.4125 38.75 19.1625 38.45C17.9 36.8875 16.875 34.0375 16.875 31.375C16.875 24.5375 22.05 17.925 30.875 17.925C38.4875 17.925 43.825 23.1125 43.825 30.5375C43.825 38.925 39.5875 44.7375 34.075 44.7375C31.0375 44.7375 28.75 42.225 29.4875 39.1375C30.3625 35.45 32.05 31.475 32.05 28.8125C32.05 26.4375 30.775 24.45 28.125 24.45C25.0125 24.45 22.5125 27.6625 22.5125 31.975C22.5125 34.725 23.4375 36.575 23.4375 36.575C23.4375 36.575 20.375 49.55 19.8125 51.975C19.1875 54.65 19.4375 58.425 19.7 60.875C8.175 56.3625 0 45.1375 0 32C0 14.875 13.875 1 31 1C48.125 1 62 14.875 62 32Z" />
    </symbol>
    <symbol id="select" viewBox="0 0 62 62">
        <path d="M31 0C13.8791 0 0 13.8791 0 31C0 48.1209 13.8791 62 31 62C48.1209 62 62 48.1209 62 31C62 13.8791 48.1209 0 31 0ZM31 6C44.8165 6 56 17.1814 56 31C56 44.8165 44.8186 56 31 56C17.1835 56 6 44.8186 6 31C6 17.1835 17.1814 6 31 6ZM48.5255 22.2834L45.7085 19.4436C45.1251 18.8555 44.1754 18.8516 43.5872 19.4351L25.9182 36.9621L18.4443 29.4275C17.8609 28.8394 16.9111 28.8355 16.323 29.4189L13.4831 32.2359C12.895 32.8192 12.8911 33.769 13.4746 34.3573L24.8223 45.7967C25.4056 46.3849 26.3554 46.3887 26.9435 45.8052L48.5171 24.4048C49.1051 23.8213 49.1089 22.8715 48.5255 22.2834Z" fill="#FF6363"/>
    </symbol>
    <symbol id="book" viewBox="0 0 60 64">
        <path d="M58.2837 35.8363C59.38 33.98 60 32 60 29.6063C60 24.1044 55.3477 18.9088 49.2725 18.9088H44.7125C45.3275 17.3075 45.8187 15.3925 45.8187 13.0913C45.8187 3.992 41.1075 0 33.91 0C26.2091 0 26.6484 11.8666 24.94 13.575C22.0966 16.4184 18.7381 21.8809 16.345 24H4C1.79087 24 0 25.7909 0 28V58C0 60.2091 1.79087 62 4 62H12C13.8616 62 15.426 60.7282 15.8722 59.0062C21.4359 59.1314 25.2548 63.9987 38.0975 63.9987C39 63.9987 40 64 40.875 64C50.5146 64 54.8733 59.0721 54.9925 52.0838C56.6574 49.7806 57.5299 46.6935 57.16 43.71C58.3917 41.4035 58.868 38.6671 58.2837 35.8363ZM50.565 42.565C52.135 45.2062 50.7225 48.7412 48.8225 49.7612C49.785 55.8587 46.6215 57.9987 42.1825 57.9987H37.455C28.5001 57.9987 22.7014 53.2713 16 53.2713V30H17.365C20.91 30 25.8625 21.1387 29.1825 17.8175C32.7275 14.2725 31.5462 8.36375 33.91 6C39.8187 6 39.8187 10.1225 39.8187 13.0913C39.8187 17.9875 36.2738 20.1813 36.2738 24.9088H49.2725C51.9112 24.9088 53.9887 27.2725 54 29.6362C54.0113 31.9987 52.3975 34.3625 51.2163 34.3625C52.9024 36.1819 53.2626 40.017 50.565 42.565V42.565ZM11 54C11 55.6569 9.65688 57 8 57C6.34312 57 5 55.6569 5 54C5 52.3431 6.34312 51 8 51C9.65688 51 11 52.3431 11 54Z" fill="#00A2FF"/>
    </symbol>
    <symbol id="search" viewBox="0 0 64 64">
        <path d="M63.1296 55.3321L50.6662 42.8708C50.1037 42.3084 49.3411 41.9959 48.541 41.9959H46.5034C49.9537 37.5838 52.0038 32.0344 52.0038 25.9975C52.0038 11.6364 40.3655 0 26.0019 0C11.6384 0 0 11.6364 0 25.9975C0 40.3586 11.6384 51.9949 26.0019 51.9949C32.0398 51.9949 37.5903 49.9451 42.0031 46.4955V48.5328C42.0031 49.3327 42.3156 50.0951 42.8781 50.6576L55.3416 63.1188C56.5166 64.2937 58.4168 64.2937 59.5794 63.1188L63.1171 59.5817C64.2922 58.4068 64.2922 56.507 63.1296 55.3321ZM26.0019 41.9959C17.1638 41.9959 10.0007 34.8466 10.0007 25.9975C10.0007 17.1608 17.1513 9.99902 26.0019 9.99902C34.84 9.99902 42.0031 17.1483 42.0031 25.9975C42.0031 34.8341 34.8526 41.9959 26.0019 41.9959Z" fill="#5373FD"/>
    </symbol>
    <symbol id="quote_left" viewBox="0 0 64 56">
        <path d="M58 28H48V20C48 15.5875 51.5875 12 56 12H57C58.6625 12 60 10.6625 60 9V3C60 1.3375 58.6625 0 57 0H56C44.95 0 36 8.95 36 20V50C36 53.3125 38.6875 56 42 56H58C61.3125 56 64 53.3125 64 50V34C64 30.6875 61.3125 28 58 28ZM22 28H12V20C12 15.5875 15.5875 12 20 12H21C22.6625 12 24 10.6625 24 9V3C24 1.3375 22.6625 0 21 0H20C8.95 0 0 8.95 0 20V50C0 53.3125 2.6875 56 6 56H22C25.3125 56 28 53.3125 28 50V34C28 30.6875 25.3125 28 22 28Z" fill="#5373FD" />
    </symbol>
     <symbol id="instagram" viewBox="0 0 21 21">
<path d="M10.0078 4.87388C7.16852 4.87388 4.87834 7.16406 4.87834 10.0033C4.87834 12.8426 7.16852 15.1328 10.0078 15.1328C12.8471 15.1328 15.1373 12.8426 15.1373 10.0033C15.1373 7.16406 12.8471 4.87388 10.0078 4.87388ZM10.0078 13.3382C8.17298 13.3382 6.67298 11.8426 6.67298 10.0033C6.67298 8.16406 8.16851 6.66853 10.0078 6.66853C11.8471 6.66853 13.3426 8.16406 13.3426 10.0033C13.3426 11.8426 11.8426 13.3382 10.0078 13.3382ZM16.5435 4.66406C16.5435 5.32924 16.0078 5.86049 15.3471 5.86049C14.6819 5.86049 14.1506 5.32478 14.1506 4.66406C14.1506 4.00335 14.6864 3.46763 15.3471 3.46763C16.0078 3.46763 16.5435 4.00335 16.5435 4.66406ZM19.9408 5.87835C19.8649 4.27567 19.4989 2.85603 18.3247 1.68638C17.1551 0.516741 15.7355 0.15067 14.1328 0.0703125C12.481 -0.0234375 7.53012 -0.0234375 5.87834 0.0703125C4.28013 0.146205 2.86049 0.512277 1.68638 1.68192C0.512276 2.85156 0.150669 4.27121 0.0703124 5.87388C-0.0234375 7.52567 -0.0234375 12.4766 0.0703124 14.1283C0.146205 15.731 0.512276 17.1507 1.68638 18.3203C2.86049 19.49 4.27566 19.856 5.87834 19.9364C7.53012 20.0301 12.481 20.0301 14.1328 19.9364C15.7355 19.8605 17.1551 19.4944 18.3247 18.3203C19.4944 17.1507 19.8605 15.731 19.9408 14.1283C20.0346 12.4766 20.0346 7.53013 19.9408 5.87835ZM17.8069 15.9007C17.4587 16.7757 16.7846 17.4498 15.9051 17.8025C14.5881 18.3248 11.4632 18.2042 10.0078 18.2042C8.55244 18.2042 5.42298 18.3203 4.11048 17.8025C3.23549 17.4542 2.56138 16.7801 2.2087 15.9007C1.68638 14.5837 1.80692 11.4587 1.80692 10.0033C1.80692 8.54799 1.69085 5.41853 2.2087 4.10603C2.55692 3.23103 3.23102 2.55692 4.11048 2.20424C5.42745 1.68192 8.55244 1.80246 10.0078 1.80246C11.4632 1.80246 14.5926 1.68638 15.9051 2.20424C16.7801 2.55246 17.4542 3.22656 17.8069 4.10603C18.3292 5.42299 18.2087 8.54799 18.2087 10.0033C18.2087 11.4587 18.3292 14.5882 17.8069 15.9007Z" />
    </symbol>
</svg>