<svg width="93" height="25" viewBox="0 0 93 25" fill="none" xmlns="http://www.w3.org/2000/svg">
<path d="M5.81801 22.0638C3.04326 22.0478 0.748047 16.3836 0.748047 13.499C0.748047 8.78691 4.28289 7.75531 5.64519 7.75531C6.25912 7.75531 6.91468 7.99641 7.49289 8.20975C7.89722 8.35858 8.31539 8.51221 8.54797 8.51221C8.68718 8.51221 9.01522 8.38152 9.30486 8.26685C9.92254 8.02095 10.6912 7.71533 11.5862 7.71533C11.5878 7.71533 11.59 7.71533 11.5915 7.71533C12.2599 7.71533 14.2863 7.86201 15.5045 9.69157L15.7899 10.1204L15.3792 10.4303C14.7925 10.873 13.7219 11.6806 13.7219 13.2803C13.7219 15.1749 14.9344 15.9036 15.5168 16.254C15.7739 16.4087 16.0401 16.5682 16.0401 16.917C16.0401 17.1448 14.2222 22.0355 11.5825 22.0355C10.9365 22.0355 10.4799 21.8414 10.0772 21.6702C9.66968 21.4968 9.31815 21.3475 8.73728 21.3475C8.44284 21.3475 8.07051 21.4867 7.67634 21.6344C7.13767 21.8355 6.52796 22.0638 5.83614 22.0638H5.81801Z" fill="#6565EC"/>
<path d="M11.8658 3.42017C11.9346 5.89905 10.1618 7.61879 8.39109 7.51093C8.09931 5.5327 10.1616 3.42017 11.8658 3.42017Z" fill="#6565EC"/>
<path d="M35.288 10.8219C35 10.2673 34.6 9.85128 34.088 9.57394C33.576 9.28594 32.984 9.14194 32.312 9.14194C31.576 9.14194 30.92 9.30728 30.344 9.63794C29.768 9.96861 29.3147 10.4379 28.984 11.0459C28.664 11.6539 28.504 12.3579 28.504 13.1579C28.504 13.9579 28.664 14.6673 28.984 15.2859C29.3147 15.8939 29.768 16.3633 30.344 16.6939C30.92 17.0246 31.576 17.1899 32.312 17.1899C33.304 17.1899 34.1094 16.9126 34.728 16.3579C35.3467 15.8033 35.7254 15.0513 35.864 14.1019H31.688V12.6459H37.816V14.0699C37.6987 14.9339 37.3894 15.7286 36.888 16.4539C36.3974 17.1793 35.752 17.7606 34.952 18.1979C34.1627 18.6246 33.2827 18.8379 32.312 18.8379C31.2667 18.8379 30.312 18.5979 29.448 18.1179C28.584 17.6273 27.896 16.9499 27.384 16.0859C26.8827 15.2219 26.632 14.2459 26.632 13.1579C26.632 12.0699 26.8827 11.0939 27.384 10.2299C27.896 9.36594 28.584 8.69394 29.448 8.21394C30.3227 7.72328 31.2774 7.47794 32.312 7.47794C33.496 7.47794 34.5467 7.77128 35.464 8.35794C36.392 8.93394 37.064 9.75528 37.48 10.8219H35.288ZM46.319 16.4699H41.663L40.863 18.7419H38.959L42.943 7.60594H45.055L49.039 18.7419H47.119L46.319 16.4699ZM45.807 14.9819L43.999 9.81394L42.175 14.9819H45.807ZM52.5953 17.2699H56.3553V18.7419H50.7713V7.62194H52.5953V17.2699ZM59.7047 17.2699H63.4647V18.7419H57.8807V7.62194H59.7047V17.2699ZM66.814 9.09394V12.3579H70.654V13.8459H66.814V17.2539H71.134V18.7419H64.99V7.60594H71.134V9.09394H66.814ZM79.1567 18.7419L76.5967 14.2939H75.2047V18.7419H73.3807V7.62194H77.2207C78.074 7.62194 78.794 7.77128 79.3807 8.06994C79.978 8.36861 80.4207 8.76861 80.7087 9.26994C81.0073 9.77128 81.1567 10.3313 81.1567 10.9499C81.1567 11.6753 80.9433 12.3366 80.5167 12.9339C80.1007 13.5206 79.4553 13.9206 78.5807 14.1339L81.3327 18.7419H79.1567ZM75.2047 12.8379H77.2207C77.9033 12.8379 78.4153 12.6673 78.7567 12.3259C79.1087 11.9846 79.2847 11.5259 79.2847 10.9499C79.2847 10.3739 79.114 9.92594 78.7727 9.60594C78.4313 9.27528 77.914 9.10994 77.2207 9.10994H75.2047V12.8379ZM91.73 7.62194L88.05 14.7099V18.7419H86.226V14.7099L82.53 7.62194H84.562L87.138 13.0779L89.714 7.62194H91.73Z" fill="#6565EC"/>
</svg>
